<svg xmlns="http://www.w3.org/2000/svg" xmlns:xlink="http://www.w3.org/1999/xlink" aria-hidden="true" role="img" width="64" height="64" viewBox="0 0 24 24" style="color: rgb(138, 139, 143);"><g fill="none" stroke="currentColor" stroke-linecap="round" stroke-linejoin="round" stroke-width="2"><path d="M9 10V8a2 2 0 0 1 2-2h6a2 2 0 0 1 2 2v2M7 10h14"></path><path d="M3 22V4a2 2 0 0 1 2-2h7a2 2 0 0 1 2 2v2m-4 8h.01M14 14h.01M18 14h.01M9 18h.01M14 18h.01M19 18h.01M8 22h.01M14 22h.01M20 22h.01"></path></g></svg>